<svg xmlns="http://www.w3.org/2000/svg" xmlns:xlink="http://www.w3.org/1999/xlink" width="200" zoomAndPan="magnify" viewBox="0 0 375 374.999991" height="200" preserveAspectRatio="xMidYMid meet" version="1.0"><defs><g/><clipPath id="50e9050633"><path d="M 95.21875 84.28125 L 216.71875 84.28125 L 216.71875 234.28125 L 95.21875 234.28125 Z M 95.21875 84.28125 " clip-rule="nonzero"/></clipPath><clipPath id="1223bfc26b"><path d="M 156.035156 174 L 176 174 L 176 203.199219 L 156.035156 203.199219 Z M 156.035156 174 " clip-rule="nonzero"/></clipPath><clipPath id="b77ea0b70c"><path d="M 260 174 L 279.785156 174 L 279.785156 203.199219 L 260 203.199219 Z M 260 174 " clip-rule="nonzero"/></clipPath><clipPath id="a22e728789"><path d="M 158 116.949219 L 278 116.949219 L 278 192 L 158 192 Z M 158 116.949219 " clip-rule="nonzero"/></clipPath></defs><g clip-path="url(#50e9050633)"><path fill="#4d4d4d" d="M 169.851562 108.964844 L 169.738281 108.964844 L 169.503906 108.96875 L 169.371094 108.96875 L 169.15625 108.972656 L 169.011719 108.976562 L 168.804688 108.980469 L 168.664062 108.988281 L 168.453125 108.992188 L 168.316406 108.996094 L 168.089844 109.007812 L 167.96875 109.011719 L 167.683594 109.023438 L 167.625 109.027344 L 167.28125 109.046875 L 167.175781 109.054688 L 166.9375 109.066406 L 166.804688 109.078125 C 166.804688 109.078125 166.648438 109.085938 166.589844 109.089844 C 166.542969 109.09375 166.5 109.097656 166.453125 109.101562 C 166.394531 109.105469 166.304688 109.113281 166.246094 109.117188 C 166.199219 109.121094 166.152344 109.125 166.105469 109.128906 C 166.046875 109.132812 165.957031 109.140625 165.898438 109.144531 C 165.855469 109.148438 165.808594 109.152344 165.761719 109.15625 C 165.703125 109.160156 165.605469 109.171875 165.546875 109.175781 C 165.503906 109.179688 165.460938 109.183594 165.417969 109.1875 C 165.355469 109.195312 165.226562 109.207031 165.171875 109.214844 C 165.140625 109.214844 165.109375 109.21875 165.078125 109.222656 C 165.007812 109.230469 164.8125 109.25 164.742188 109.257812 C 164.710938 109.261719 164.679688 109.265625 164.652344 109.265625 C 164.59375 109.273438 164.464844 109.289062 164.402344 109.296875 C 164.359375 109.300781 164.316406 109.304688 164.273438 109.308594 C 164.21875 109.316406 164.121094 109.328125 164.0625 109.335938 C 164.015625 109.339844 163.96875 109.347656 163.925781 109.351562 C 163.867188 109.359375 163.78125 109.371094 163.722656 109.378906 C 163.675781 109.382812 163.628906 109.390625 163.582031 109.398438 C 163.523438 109.402344 163.441406 109.414062 163.382812 109.421875 C 163.335938 109.429688 163.289062 109.433594 163.242188 109.441406 C 163.183594 109.449219 163.097656 109.460938 163.039062 109.472656 C 162.996094 109.476562 162.949219 109.484375 162.90625 109.492188 C 162.847656 109.5 162.738281 109.515625 162.683594 109.523438 C 162.644531 109.53125 162.605469 109.535156 162.570312 109.539062 C 162.496094 109.550781 162.308594 109.582031 162.238281 109.59375 C 162.214844 109.597656 162.191406 109.597656 162.167969 109.605469 C 162.113281 109.613281 161.972656 109.636719 161.90625 109.644531 C 161.863281 109.652344 161.820312 109.660156 161.777344 109.667969 C 161.722656 109.675781 161.632812 109.691406 161.574219 109.703125 C 161.527344 109.710938 161.480469 109.71875 161.429688 109.726562 C 161.375 109.738281 161.296875 109.75 161.242188 109.761719 C 161.191406 109.769531 161.144531 109.78125 161.09375 109.789062 C 161.039062 109.796875 160.964844 109.8125 160.90625 109.824219 C 160.859375 109.832031 160.808594 109.839844 160.761719 109.851562 C 160.707031 109.863281 160.628906 109.878906 160.570312 109.886719 C 160.523438 109.898438 160.476562 109.90625 160.429688 109.914062 C 160.371094 109.925781 160.285156 109.945312 160.230469 109.957031 C 160.1875 109.964844 160.144531 109.972656 160.101562 109.980469 C 160.035156 109.996094 159.898438 110.023438 159.84375 110.035156 C 159.820312 110.039062 159.792969 110.046875 159.773438 110.050781 C 159.761719 110.050781 159.75 110.054688 159.738281 110.054688 C 159.683594 110.070312 159.519531 110.105469 159.453125 110.121094 C 159.40625 110.128906 159.363281 110.136719 159.324219 110.148438 C 159.265625 110.160156 159.179688 110.179688 159.125 110.191406 C 159.074219 110.203125 159.027344 110.214844 158.980469 110.226562 C 158.925781 110.234375 158.855469 110.253906 158.796875 110.265625 C 158.75 110.277344 158.699219 110.289062 158.652344 110.300781 C 158.59375 110.316406 158.527344 110.332031 158.472656 110.34375 C 158.421875 110.355469 158.371094 110.367188 158.324219 110.378906 C 158.269531 110.394531 158.199219 110.410156 158.144531 110.421875 C 158.09375 110.4375 158.046875 110.445312 157.996094 110.460938 C 157.941406 110.472656 157.867188 110.492188 157.8125 110.503906 C 157.765625 110.519531 157.722656 110.53125 157.675781 110.542969 C 157.617188 110.558594 157.519531 110.582031 157.464844 110.597656 C 157.425781 110.605469 157.390625 110.613281 157.351562 110.625 C 157.28125 110.644531 157.113281 110.6875 157.039062 110.710938 C 156.996094 110.71875 156.957031 110.730469 156.914062 110.742188 C 156.859375 110.757812 156.777344 110.78125 156.71875 110.796875 C 156.671875 110.808594 156.625 110.824219 156.578125 110.835938 C 156.523438 110.851562 156.453125 110.871094 156.398438 110.886719 C 156.351562 110.902344 156.300781 110.914062 156.253906 110.929688 C 156.199219 110.945312 156.132812 110.964844 156.078125 110.980469 C 156.03125 110.996094 155.980469 111.011719 155.929688 111.023438 C 155.878906 111.039062 155.8125 111.058594 155.757812 111.074219 C 155.710938 111.089844 155.660156 111.105469 155.613281 111.121094 C 155.558594 111.136719 155.488281 111.15625 155.433594 111.171875 C 155.390625 111.1875 155.34375 111.203125 155.296875 111.214844 C 155.238281 111.234375 155.152344 111.261719 155.101562 111.277344 C 155.0625 111.289062 155.019531 111.304688 154.980469 111.316406 C 154.910156 111.339844 154.742188 111.394531 154.671875 111.414062 C 154.636719 111.425781 154.601562 111.4375 154.566406 111.449219 C 154.515625 111.46875 154.417969 111.5 154.359375 111.519531 C 154.316406 111.53125 154.269531 111.546875 154.226562 111.5625 C 154.175781 111.578125 154.097656 111.605469 154.042969 111.625 C 154 111.640625 153.953125 111.65625 153.90625 111.671875 C 153.855469 111.691406 153.78125 111.714844 153.730469 111.730469 C 153.683594 111.746094 153.59375 111.78125 153.59375 111.78125 L 153.414062 111.84375 L 153.28125 111.890625 L 153.097656 111.957031 L 152.96875 112.003906 L 152.765625 112.078125 L 152.660156 112.117188 L 152.355469 112.234375 L 152.042969 112.351562 L 151.945312 112.390625 L 151.738281 112.472656 L 151.625 112.515625 L 151.429688 112.597656 L 151.117188 112.722656 L 151.007812 112.769531 L 150.800781 112.855469 L 150.703125 112.894531 L 150.464844 112.996094 L 150.402344 113.023438 L 150.09375 113.160156 L 149.78125 113.296875 L 149.757812 113.308594 L 149.476562 113.433594 L 149.417969 113.460938 L 149.171875 113.574219 L 149.105469 113.605469 L 148.863281 113.71875 L 148.800781 113.746094 L 148.546875 113.867188 L 148.5 113.890625 L 148.203125 114.035156 C 131.480469 122.207031 119.953125 139.398438 119.953125 159.265625 C 119.953125 179.148438 131.503906 196.355469 148.25 204.519531 L 148.546875 204.664062 L 148.574219 204.675781 L 148.851562 204.808594 L 148.886719 204.824219 L 149.167969 204.957031 L 149.195312 204.96875 L 149.5 205.109375 C 149.605469 205.15625 149.710938 205.203125 149.816406 205.25 L 150.125 205.386719 L 150.179688 205.410156 L 150.421875 205.515625 L 150.519531 205.554688 L 150.722656 205.644531 L 150.835938 205.691406 L 151.027344 205.769531 L 151.148438 205.820312 L 151.335938 205.894531 L 151.453125 205.945312 L 151.644531 206.019531 L 151.761719 206.066406 L 151.984375 206.15625 L 152.074219 206.1875 L 152.367188 206.304688 L 152.5 206.351562 L 152.675781 206.417969 L 152.820312 206.472656 L 152.980469 206.53125 L 153.136719 206.589844 L 153.289062 206.640625 L 153.445312 206.699219 L 153.597656 206.75 L 153.757812 206.808594 L 153.90625 206.859375 L 154.070312 206.914062 L 154.214844 206.964844 L 154.382812 207.019531 L 154.679688 207.117188 L 154.847656 207.171875 L 154.988281 207.21875 L 155.160156 207.273438 L 155.304688 207.316406 L 155.472656 207.367188 L 155.617188 207.414062 L 155.789062 207.464844 L 155.933594 207.507812 L 156.105469 207.558594 L 156.25 207.601562 L 156.421875 207.648438 L 156.566406 207.691406 L 156.742188 207.738281 L 156.878906 207.777344 L 157.050781 207.824219 L 157.214844 207.867188 L 157.359375 207.90625 L 157.53125 207.953125 L 157.679688 207.992188 L 157.851562 208.035156 L 158.003906 208.074219 L 158.171875 208.113281 L 158.324219 208.152344 L 158.492188 208.191406 L 158.652344 208.230469 L 158.820312 208.269531 L 158.976562 208.304688 L 159.144531 208.34375 L 159.316406 208.382812 L 159.46875 208.417969 L 159.777344 208.484375 L 159.929688 208.511719 L 160.105469 208.550781 L 160.261719 208.582031 L 160.433594 208.617188 L 160.59375 208.648438 L 160.765625 208.679688 L 160.925781 208.710938 L 161.097656 208.742188 L 161.253906 208.769531 L 161.4375 208.804688 L 161.585938 208.832031 L 161.78125 208.863281 L 161.917969 208.886719 L 162.242188 208.9375 L 162.339844 208.953125 L 162.574219 208.992188 L 162.710938 209.011719 L 162.910156 209.042969 L 163.058594 209.0625 L 163.246094 209.089844 L 163.394531 209.109375 L 163.585938 209.132812 L 163.734375 209.152344 L 163.929688 209.179688 L 164.070312 209.195312 L 164.28125 209.222656 L 164.410156 209.238281 L 164.679688 209.265625 L 164.746094 209.273438 L 165.082031 209.308594 L 165.195312 209.320312 L 165.425781 209.34375 L 165.558594 209.355469 L 165.765625 209.375 L 165.90625 209.386719 L 166.109375 209.402344 L 166.253906 209.414062 L 166.457031 209.429688 L 166.59375 209.441406 L 166.808594 209.453125 L 166.941406 209.464844 L 167.1875 209.480469 L 167.28125 209.484375 L 167.625 209.503906 L 167.703125 209.507812 L 167.96875 209.519531 L 168.09375 209.523438 L 168.316406 209.53125 L 168.453125 209.539062 L 168.664062 209.542969 L 168.808594 209.546875 L 169.015625 209.554688 L 169.15625 209.558594 L 169.371094 209.558594 L 169.503906 209.5625 L 169.738281 209.566406 L 170.203125 209.566406 C 170.203125 209.566406 170.523438 209.566406 170.523438 209.566406 L 170.609375 209.566406 L 170.90625 209.5625 L 170.9375 209.5625 L 171.257812 209.558594 L 171.339844 209.554688 L 171.617188 209.546875 L 171.667969 209.546875 L 171.988281 209.535156 L 172.066406 209.53125 L 172.335938 209.523438 L 172.398438 209.519531 L 172.714844 209.507812 L 172.785156 209.5 L 173.054688 209.488281 L 173.121094 209.484375 L 173.441406 209.464844 L 173.503906 209.460938 L 173.773438 209.441406 L 173.84375 209.4375 L 174.164062 209.414062 L 174.492188 209.386719 L 174.5625 209.378906 L 174.882812 209.351562 L 174.910156 209.347656 L 175.207031 209.320312 L 175.277344 209.3125 L 175.601562 209.28125 L 175.921875 209.246094 L 175.988281 209.238281 L 176.308594 209.199219 L 176.632812 209.160156 L 176.695312 209.152344 L 177.015625 209.109375 L 177.34375 209.0625 L 177.394531 209.054688 L 177.703125 209.011719 L 177.71875 209.007812 L 178.050781 208.957031 L 178.089844 208.949219 L 178.398438 208.902344 L 178.421875 208.894531 L 178.757812 208.839844 L 178.777344 208.835938 L 179.097656 208.78125 L 179.117188 208.777344 L 179.457031 208.714844 L 179.792969 208.652344 L 179.808594 208.648438 L 180.148438 208.582031 L 180.484375 208.511719 L 180.496094 208.507812 L 180.835938 208.4375 L 181.179688 208.363281 C 184.9375 207.519531 188.542969 206.257812 191.9375 204.625 C 194.179688 203.542969 196.335938 202.300781 198.378906 200.910156 C 198.617188 200.75 198.894531 200.664062 199.179688 200.664062 C 201.269531 200.664062 210.28125 200.664062 215.171875 200.664062 C 215.742188 200.664062 216.253906 201 216.480469 201.519531 C 216.707031 202.042969 216.601562 202.648438 216.210938 203.0625 C 214.203125 205.1875 212.050781 207.171875 209.765625 209.003906 C 209.765625 209.003906 211.316406 213.675781 212.421875 217.003906 C 213.078125 218.96875 212.324219 221.132812 210.589844 222.261719 C 208.5 223.605469 206.347656 224.847656 204.140625 225.980469 C 202.296875 226.917969 200.054688 226.492188 198.679688 224.945312 C 196.351562 222.328125 193.085938 218.644531 193.085938 218.644531 C 191.964844 219.082031 190.832031 219.488281 189.6875 219.859375 C 189.429688 220 189.160156 220.113281 188.878906 220.199219 C 185.917969 221.101562 182.894531 221.796875 179.832031 222.265625 C 179.832031 222.265625 178.839844 227.089844 178.132812 230.519531 C 177.714844 232.546875 175.988281 234.039062 173.921875 234.152344 C 172.640625 234.214844 171.359375 234.246094 170.078125 234.246094 C 168.796875 234.246094 167.519531 234.214844 166.238281 234.152344 C 164.175781 234.039062 162.445312 232.546875 162.03125 230.519531 C 161.320312 227.089844 160.328125 222.265625 160.328125 222.265625 C 157.265625 221.796875 154.242188 221.101562 151.285156 220.199219 C 151 220.113281 150.730469 220 150.476562 219.859375 C 149.332031 219.488281 148.199219 219.082031 147.074219 218.644531 C 147.074219 218.644531 143.808594 222.328125 141.476562 224.945312 C 140.105469 226.492188 137.863281 226.917969 136.019531 225.980469 C 133.8125 224.847656 131.660156 223.605469 129.570312 222.261719 C 127.835938 221.132812 127.085938 218.96875 127.738281 217.003906 C 128.84375 213.675781 130.394531 209.003906 130.394531 209.003906 C 126.75 206.078125 123.4375 202.765625 120.515625 199.113281 C 120.515625 199.113281 115.847656 200.667969 112.523438 201.769531 C 110.5625 202.421875 108.40625 201.667969 107.277344 199.933594 C 105.929688 197.847656 104.6875 195.695312 103.550781 193.488281 C 102.613281 191.636719 103.039062 189.390625 104.589844 188.015625 C 107.207031 185.6875 110.886719 182.414062 110.886719 182.414062 C 109.1875 178.058594 107.976562 173.527344 107.269531 168.90625 C 107.269531 168.90625 102.449219 167.914062 99.019531 167.203125 C 96.996094 166.789062 95.507812 165.054688 95.394531 162.988281 C 95.269531 160.507812 95.269531 158.023438 95.386719 155.542969 C 95.5 153.472656 96.992188 151.738281 99.019531 151.320312 C 102.449219 150.617188 107.269531 149.625 107.269531 149.625 C 107.976562 145.003906 109.1875 140.472656 110.886719 136.113281 C 110.886719 136.113281 107.207031 132.84375 104.59375 130.511719 C 103.046875 129.136719 102.621094 126.894531 103.554688 125.046875 C 104.6875 122.835938 105.929688 120.683594 107.269531 118.59375 C 108.402344 116.855469 110.558594 116.105469 112.523438 116.757812 C 115.847656 117.863281 120.515625 119.417969 120.515625 119.417969 C 123.4375 115.765625 126.75 112.449219 130.394531 109.527344 C 130.394531 109.527344 128.84375 104.851562 127.742188 101.523438 C 127.089844 99.5625 127.84375 97.402344 129.574219 96.273438 C 131.660156 94.925781 133.8125 93.683594 136.015625 92.542969 C 137.863281 91.605469 140.109375 92.03125 141.484375 93.582031 C 142.601562 94.84375 143.941406 96.355469 145.03125 97.574219 C 146.25 98.945312 148.171875 99.453125 149.90625 98.859375 C 150.109375 98.789062 150.308594 98.722656 150.511719 98.65625 C 150.757812 98.527344 151.015625 98.421875 151.285156 98.335938 C 153.578125 97.632812 155.90625 97.058594 158.265625 96.617188 C 159.285156 96.253906 160.128906 95.539062 160.667969 94.621094 L 162.023438 88.007812 C 162.4375 85.980469 164.171875 84.484375 166.238281 84.371094 C 167.519531 84.3125 168.796875 84.28125 170.078125 84.285156 C 171.359375 84.28125 172.644531 84.3125 173.921875 84.371094 C 175.988281 84.484375 177.722656 85.980469 178.136719 88.007812 L 179.492188 94.621094 C 180.027344 95.539062 180.875 96.253906 181.894531 96.617188 C 184.253906 97.058594 186.582031 97.632812 188.875 98.335938 C 189.144531 98.421875 189.402344 98.527344 189.648438 98.65625 C 189.847656 98.722656 190.054688 98.789062 190.253906 98.859375 C 191.988281 99.453125 193.910156 98.945312 195.128906 97.574219 C 196.21875 96.355469 197.558594 94.84375 198.675781 93.582031 C 200.050781 92.03125 202.296875 91.605469 204.144531 92.542969 C 206.347656 93.683594 208.5 94.925781 210.585938 96.273438 C 212.316406 97.402344 213.070312 99.5625 212.417969 101.523438 C 211.316406 104.851562 209.765625 109.527344 209.765625 109.527344 C 212.050781 111.359375 214.203125 113.34375 216.210938 115.46875 C 216.597656 115.882812 216.703125 116.488281 216.476562 117.007812 C 216.253906 117.53125 215.738281 117.867188 215.171875 117.867188 C 210.28125 117.867188 201.269531 117.867188 199.179688 117.867188 C 198.894531 117.867188 198.617188 117.78125 198.382812 117.621094 C 196.347656 116.238281 194.210938 115.003906 191.980469 113.925781 C 191.773438 113.828125 191.570312 113.730469 191.363281 113.632812 L 191.359375 113.632812 L 191.046875 113.488281 L 190.75 113.355469 L 190.722656 113.34375 L 190.421875 113.207031 L 190.132812 113.082031 L 190.085938 113.0625 L 189.789062 112.933594 L 189.503906 112.8125 L 189.445312 112.789062 L 189.152344 112.667969 L 188.867188 112.554688 L 188.800781 112.527344 L 188.523438 112.417969 L 188.511719 112.410156 L 188.226562 112.300781 L 188.148438 112.273438 L 187.902344 112.179688 L 187.859375 112.160156 L 187.578125 112.058594 L 187.5 112.027344 L 187.265625 111.941406 L 187.203125 111.921875 L 186.925781 111.820312 L 186.84375 111.792969 L 186.621094 111.714844 L 186.542969 111.6875 L 186.269531 111.59375 L 186.183594 111.566406 L 185.964844 111.492188 L 185.882812 111.464844 L 185.605469 111.375 L 185.523438 111.347656 L 185.304688 111.277344 L 185.214844 111.25 L 184.9375 111.164062 L 184.859375 111.140625 L 184.640625 111.074219 L 184.546875 111.046875 L 184.265625 110.960938 L 184.199219 110.941406 L 183.96875 110.878906 L 183.871094 110.851562 L 183.589844 110.773438 L 183.535156 110.757812 L 183.292969 110.691406 L 183.195312 110.664062 L 182.9375 110.59375 L 182.902344 110.585938 L 182.875 110.578125 L 182.613281 110.511719 L 182.515625 110.488281 L 182.273438 110.425781 L 182.214844 110.414062 L 181.929688 110.34375 L 181.832031 110.320312 L 181.597656 110.265625 L 181.527344 110.25 L 181.238281 110.183594 L 181.148438 110.160156 L 180.914062 110.109375 L 180.839844 110.09375 L 180.546875 110.03125 L 180.460938 110.015625 L 180.226562 109.96875 L 180.144531 109.949219 L 179.851562 109.890625 L 179.769531 109.875 L 179.535156 109.832031 L 179.449219 109.8125 L 179.152344 109.761719 L 179.078125 109.746094 L 178.835938 109.703125 L 178.75 109.6875 L 178.449219 109.640625 L 178.386719 109.628906 L 178.132812 109.585938 L 178.046875 109.574219 L 177.746094 109.527344 L 177.695312 109.519531 L 177.429688 109.480469 L 177.339844 109.46875 L 177.035156 109.425781 L 177.011719 109.421875 L 176.722656 109.382812 L 176.632812 109.371094 L 176.34375 109.335938 L 176.320312 109.332031 L 176.007812 109.296875 L 175.925781 109.285156 L 175.648438 109.257812 L 175.605469 109.25 L 175.292969 109.21875 L 175.210938 109.210938 L 174.941406 109.183594 L 174.886719 109.179688 L 174.574219 109.152344 L 174.496094 109.144531 L 174.230469 109.125 L 174.167969 109.117188 L 173.851562 109.09375 L 173.777344 109.089844 L 173.515625 109.070312 L 173.441406 109.066406 L 173.128906 109.046875 L 173.058594 109.042969 L 172.792969 109.03125 L 172.71875 109.023438 L 172.398438 109.011719 L 172.339844 109.007812 L 172.070312 108.996094 L 171.988281 108.992188 L 171.667969 108.984375 L 171.625 108.980469 L 171.34375 108.976562 L 171.257812 108.972656 L 170.9375 108.96875 L 170.910156 108.96875 L 170.609375 108.964844 L 170.527344 108.964844 L 170.203125 108.960938 Z M 169.851562 108.964844 " fill-opacity="1" fill-rule="evenodd"/></g><g clip-path="url(#1223bfc26b)"><path fill="#4d4d4d" d="M 165.417969 193.230469 C 161.691406 193.1875 157.210938 190.867188 157 180.0625 C 157 179.894531 156.992188 179.726562 156.992188 179.546875 C 156.992188 179.425781 156.992188 179.308594 156.992188 179.1875 L 156.992188 179.160156 L 157.171875 174.4375 C 156.476562 175.242188 156.050781 176.292969 156.050781 177.433594 L 156.050781 198.636719 C 156.050781 201.15625 158.09375 203.199219 160.609375 203.199219 L 170.808594 203.199219 C 173.328125 203.199219 175.367188 201.15625 175.367188 198.636719 L 175.367188 193.230469 L 165.515625 193.230469 C 165.488281 193.230469 165.445312 193.230469 165.417969 193.230469 Z M 165.417969 193.230469 " fill-opacity="1" fill-rule="nonzero"/></g><g clip-path="url(#b77ea0b70c)"><path fill="#4d4d4d" d="M 278.652344 174.4375 L 278.828125 179.1875 C 278.828125 179.308594 278.828125 179.425781 278.828125 179.546875 C 278.828125 179.714844 278.828125 179.894531 278.820312 180.0625 C 278.613281 190.878906 274.132812 193.1875 270.394531 193.230469 L 260.441406 193.230469 L 260.441406 198.636719 C 260.441406 201.15625 262.484375 203.199219 265.003906 203.199219 L 275.203125 203.199219 C 277.71875 203.199219 279.761719 201.15625 279.761719 198.636719 L 279.761719 177.433594 C 279.769531 176.292969 279.34375 175.242188 278.652344 174.4375 Z M 278.652344 174.4375 " fill-opacity="1" fill-rule="nonzero"/></g><g clip-path="url(#a22e728789)"><path fill="#004aad" d="M 277.113281 173.285156 L 276.746094 163.550781 L 276.746094 163.492188 C 276.746094 163.464844 276.746094 163.433594 276.738281 163.402344 L 276.71875 163.136719 C 276.707031 163.066406 276.699219 162.996094 276.699219 162.925781 C 276.699219 162.898438 276.6875 162.867188 276.6875 162.839844 C 276.679688 162.796875 276.679688 162.75 276.679688 162.710938 C 276.679688 162.667969 276.667969 162.628906 276.660156 162.582031 L 276.648438 162.511719 C 276.640625 162.460938 276.640625 162.410156 276.628906 162.363281 L 276.621094 162.28125 C 276.609375 162.242188 276.609375 162.203125 276.597656 162.164062 L 276.578125 162.0625 C 276.539062 161.824219 276.5 161.597656 276.460938 161.390625 C 276.429688 161.222656 276.390625 161.050781 276.351562 160.894531 L 276.320312 160.753906 C 276.3125 160.703125 276.292969 160.65625 276.28125 160.597656 C 276.253906 160.457031 276.210938 160.328125 276.171875 160.1875 C 276.144531 160.058594 276.105469 159.929688 276.0625 159.800781 C 276.054688 159.761719 276.035156 159.703125 275.996094 159.613281 C 275.894531 159.367188 275.617188 158.730469 275.011719 157.917969 C 274.894531 157.769531 274.753906 157.597656 274.605469 157.421875 C 272.316406 154.644531 267.074219 148.628906 264.367188 145.535156 C 263.585938 145.574219 262.832031 145.59375 262.109375 145.605469 C 261.105469 145.613281 260.511719 144.820312 260.75 143.769531 C 260.929688 142.984375 261.148438 142.152344 261.425781 141.257812 L 251.808594 121.753906 C 251.75 121.632812 251.679688 121.515625 251.621094 121.394531 C 251.601562 121.355469 251.570312 121.316406 251.550781 121.277344 C 251.511719 121.207031 251.472656 121.148438 251.433594 121.085938 C 251.394531 121.027344 251.34375 120.957031 251.304688 120.898438 C 251.136719 120.671875 250.949219 120.433594 250.738281 120.222656 C 249.488281 118.925781 247.6875 118.101562 245.773438 117.960938 C 244.832031 117.890625 244.058594 117.84375 243.335938 117.792969 C 242.570312 117.742188 241.808594 117.695312 241.035156 117.644531 C 240.371094 117.605469 239.695312 117.566406 239.023438 117.527344 L 238.992188 117.527344 C 238.308594 117.484375 237.617188 117.445312 236.933594 117.417969 C 234.621094 117.296875 232.253906 117.207031 229.894531 117.128906 L 229.863281 117.128906 C 229.65625 117.117188 229.4375 117.117188 229.230469 117.109375 C 226.386719 117.019531 223.53125 116.96875 220.734375 116.949219 C 220.546875 116.949219 220.359375 116.949219 220.171875 116.949219 C 219.8125 116.949219 219.457031 116.949219 219.101562 116.949219 C 217.949219 116.949219 216.789062 116.949219 215.640625 116.949219 C 215.453125 116.949219 215.265625 116.949219 215.074219 116.949219 C 212.28125 116.96875 209.425781 117.019531 206.589844 117.109375 C 204.101562 117.1875 201.597656 117.289062 199.128906 117.40625 L 199.089844 117.40625 C 198.730469 117.425781 198.382812 117.445312 198.027344 117.457031 C 197.480469 117.484375 196.9375 117.515625 196.390625 117.546875 C 195.855469 117.574219 195.320312 117.605469 194.785156 117.644531 C 194.011719 117.695312 193.25 117.742188 192.488281 117.792969 C 191.761719 117.84375 190.980469 117.890625 190.039062 117.960938 C 188.125 118.101562 186.320312 118.925781 185.074219 120.222656 C 184.863281 120.433594 184.675781 120.660156 184.507812 120.910156 C 184.46875 120.96875 184.417969 121.027344 184.378906 121.085938 C 184.339844 121.148438 184.300781 121.207031 184.261719 121.265625 C 184.230469 121.304688 184.210938 121.34375 184.191406 121.386719 C 184.132812 121.492188 184.0625 121.613281 183.992188 121.742188 L 174.378906 141.238281 C 174.65625 142.132812 174.875 142.976562 175.050781 143.75 C 175.289062 144.800781 174.695312 145.59375 173.695312 145.585938 C 172.96875 145.574219 172.21875 145.554688 171.433594 145.515625 C 168.71875 148.621094 163.453125 154.652344 161.195312 157.402344 C 161.046875 157.578125 160.90625 157.75 160.789062 157.898438 C 160.183594 158.710938 159.90625 159.355469 159.816406 159.59375 C 159.777344 159.691406 159.757812 159.753906 159.746094 159.792969 C 159.707031 159.929688 159.667969 160.058594 159.636719 160.1875 C 159.609375 160.296875 159.578125 160.417969 159.550781 160.535156 L 159.53125 160.597656 C 159.519531 160.636719 159.507812 160.664062 159.507812 160.703125 C 159.5 160.746094 159.488281 160.773438 159.488281 160.8125 C 159.449219 161.011719 159.402344 161.199219 159.371094 161.390625 C 159.332031 161.609375 159.28125 161.835938 159.253906 162.074219 L 159.210938 162.363281 C 159.203125 162.410156 159.203125 162.460938 159.191406 162.519531 L 159.183594 162.582031 C 159.171875 162.628906 159.171875 162.667969 159.164062 162.71875 C 159.152344 162.769531 159.152344 162.828125 159.144531 162.878906 L 159.113281 163.136719 C 159.101562 163.226562 159.09375 163.304688 159.09375 163.382812 L 159.09375 163.433594 C 159.09375 163.453125 159.09375 163.484375 159.082031 163.503906 L 159.082031 163.5625 L 158.714844 173.296875 L 158.5 179.210938 C 158.5 179.316406 158.5 179.425781 158.5 179.535156 L 158.5 179.546875 C 158.5 179.714844 158.5 179.875 158.507812 180.03125 C 158.589844 184.128906 159.300781 187.207031 160.628906 189.171875 C 161.789062 190.878906 163.367188 191.71875 165.457031 191.742188 L 165.476562 191.742188 C 165.496094 191.742188 165.515625 191.742188 165.546875 191.742188 L 270.414062 191.742188 C 272.496094 191.71875 274.070312 190.878906 275.230469 189.171875 C 276.558594 187.207031 277.285156 184.128906 277.351562 180.03125 C 277.351562 179.875 277.363281 179.707031 277.363281 179.546875 L 277.363281 179.535156 C 277.363281 179.425781 277.363281 179.316406 277.363281 179.210938 Z M 176.84375 143.578125 L 176.886719 143.460938 L 181 135.117188 L 182.328125 132.429688 L 182.992188 131.089844 L 184.953125 127.109375 L 186.886719 123.191406 C 186.917969 123.121094 186.945312 123.070312 186.976562 123.03125 L 187.003906 122.980469 L 187.023438 122.953125 C 187.035156 122.933594 187.054688 122.914062 187.066406 122.894531 C 187.085938 122.863281 187.105469 122.832031 187.125 122.804688 C 187.214844 122.683594 187.300781 122.574219 187.402344 122.476562 L 187.410156 122.464844 C 188.105469 121.742188 189.175781 121.265625 190.285156 121.1875 C 191.21875 121.117188 191.992188 121.066406 192.703125 121.019531 C 193.46875 120.96875 194.230469 120.917969 194.996094 120.867188 C 195.519531 120.839844 196.046875 120.808594 196.582031 120.78125 C 197.117188 120.75 197.660156 120.71875 198.207031 120.691406 C 198.5625 120.671875 198.929688 120.652344 199.296875 120.632812 C 201.746094 120.511719 204.230469 120.414062 206.699219 120.332031 C 209.515625 120.253906 212.339844 120.195312 215.105469 120.175781 L 215.125 120.175781 C 215.304688 120.175781 215.492188 120.175781 215.671875 120.175781 C 216.433594 120.175781 217.207031 120.164062 217.96875 120.164062 C 218.347656 120.164062 218.722656 120.164062 219.101562 120.164062 L 219.121094 120.164062 C 219.46875 120.164062 219.8125 120.164062 220.160156 120.164062 C 220.347656 120.164062 220.527344 120.164062 220.714844 120.164062 L 220.734375 120.164062 C 223.511719 120.183594 226.335938 120.234375 229.160156 120.324219 C 229.367188 120.332031 229.578125 120.332031 229.785156 120.34375 L 229.875 120.34375 C 232.203125 120.421875 234.53125 120.511719 236.804688 120.632812 C 237.488281 120.660156 238.171875 120.699219 238.84375 120.738281 L 238.953125 120.75 L 238.964844 120.75 C 239.609375 120.789062 240.242188 120.828125 240.875 120.859375 C 241.640625 120.910156 242.394531 120.957031 243.15625 121.007812 C 243.878906 121.058594 244.652344 121.105469 245.585938 121.175781 C 246.695312 121.257812 247.765625 121.730469 248.460938 122.457031 C 248.558594 122.554688 248.648438 122.664062 248.726562 122.785156 C 248.757812 122.8125 248.777344 122.851562 248.796875 122.882812 C 248.804688 122.902344 248.816406 122.921875 248.835938 122.941406 L 248.867188 122.980469 L 248.886719 123.023438 C 248.914062 123.070312 248.945312 123.132812 248.976562 123.179688 L 250.90625 127.101562 L 252.871094 131.078125 L 253.523438 132.40625 L 254.851562 135.097656 L 259.113281 143.738281 L 176.746094 143.738281 Z M 180.34375 186.609375 C 178.5 186.609375 177.003906 185.113281 177.003906 183.265625 C 177.003906 181.421875 178.5 179.921875 180.34375 179.921875 C 182.1875 179.921875 183.683594 181.421875 183.683594 183.265625 C 183.683594 185.113281 182.1875 186.609375 180.34375 186.609375 Z M 187.886719 173.929688 C 187.75 174.851562 185.777344 174.972656 184.667969 174.933594 C 181.214844 174.792969 177.765625 174.65625 174.316406 174.515625 C 173.128906 174.464844 171.9375 174.417969 170.75 174.378906 C 170.007812 174.347656 166.558594 174.308594 165.921875 173.890625 C 165.535156 173.644531 165.25 173.277344 165 172.867188 C 164.753906 172.441406 164.554688 171.964844 164.375 171.5 C 163.34375 168.871094 160.410156 162.90625 162.550781 163.117188 C 167.042969 163.5625 182.007812 165.605469 184.457031 166.242188 C 185.480469 166.5 188.144531 172.242188 187.886719 173.929688 Z M 242.492188 172.96875 L 239.0625 183.484375 C 238.707031 184.585938 237.921875 185.320312 237.121094 185.320312 L 198.703125 185.320312 C 197.898438 185.320312 197.117188 184.585938 196.757812 183.484375 L 193.328125 172.96875 C 192.703125 171.042969 193.4375 169.03125 194.804688 169.03125 L 241.023438 169.03125 C 242.382812 169.03125 243.117188 171.042969 242.492188 172.96875 Z M 255.476562 186.609375 C 253.632812 186.609375 252.136719 185.113281 252.136719 183.265625 C 252.136719 181.421875 253.632812 179.921875 255.476562 179.921875 C 257.320312 179.921875 258.816406 181.421875 258.816406 183.265625 C 258.816406 185.113281 257.320312 186.609375 255.476562 186.609375 Z M 269.898438 173.890625 C 269.265625 174.308594 265.816406 174.347656 265.070312 174.378906 C 263.882812 174.425781 262.691406 174.476562 261.503906 174.515625 C 258.054688 174.65625 254.605469 174.792969 251.15625 174.933594 C 250.046875 174.972656 248.074219 174.851562 247.933594 173.929688 C 247.675781 172.242188 250.34375 166.5 251.363281 166.242188 C 253.8125 165.617188 268.777344 163.5625 273.269531 163.117188 C 275.410156 162.90625 272.476562 168.871094 271.445312 171.5 C 271.265625 171.964844 271.070312 172.441406 270.820312 172.867188 C 270.574219 173.277344 270.285156 173.644531 269.898438 173.890625 Z M 269.898438 173.890625 " fill-opacity="1" fill-rule="nonzero"/></g><path fill="#004aad" d="M 275.507812 136.296875 C 274.050781 136.070312 272.375 135.902344 270.472656 135.890625 C 268.433594 135.871094 266.527344 136.03125 264.832031 136.269531 C 263.910156 136.398438 263 137.140625 262.605469 138.0625 C 262.433594 138.449219 262.277344 138.855469 262.117188 139.285156 C 262 139.601562 261.878906 139.917969 261.769531 140.257812 C 261.671875 140.542969 261.574219 140.832031 261.484375 141.140625 C 261.472656 141.179688 261.453125 141.230469 261.445312 141.269531 C 261.167969 142.160156 260.949219 143.003906 260.769531 143.777344 C 260.53125 144.832031 261.125 145.625 262.128906 145.613281 C 262.851562 145.605469 263.605469 145.585938 264.386719 145.542969 C 264.695312 145.523438 265.011719 145.515625 265.328125 145.484375 C 265.636719 145.464844 265.945312 145.445312 266.261719 145.414062 C 266.785156 145.375 267.3125 145.316406 267.855469 145.257812 C 269.679688 145.046875 271.40625 144.769531 273.011719 144.453125 C 273.804688 144.292969 274.578125 143.699219 274.992188 142.925781 C 275.378906 142.210938 275.777344 141.359375 276.09375 140.386719 C 276.402344 139.414062 276.558594 138.558594 276.628906 137.84375 C 276.707031 137.023438 276.261719 136.417969 275.507812 136.296875 Z M 275.507812 136.296875 " fill-opacity="1" fill-rule="nonzero"/><path fill="#004aad" d="M 174.378906 141.257812 C 174.367188 141.21875 174.347656 141.167969 174.339844 141.128906 C 174.238281 140.832031 174.148438 140.535156 174.050781 140.246094 C 173.929688 139.917969 173.824219 139.589844 173.703125 139.273438 C 173.546875 138.847656 173.375 138.441406 173.21875 138.054688 C 172.832031 137.121094 171.910156 136.375 170.988281 136.257812 C 169.292969 136.019531 167.378906 135.871094 165.347656 135.878906 C 163.445312 135.902344 161.769531 136.058594 160.3125 136.289062 C 159.558594 136.40625 159.113281 137.023438 159.191406 137.835938 C 159.261719 138.550781 159.421875 139.402344 159.726562 140.375 C 160.042969 141.347656 160.441406 142.210938 160.828125 142.914062 C 161.246094 143.6875 162.027344 144.285156 162.808594 144.441406 C 164.417969 144.761719 166.140625 145.039062 167.964844 145.246094 C 168.507812 145.304688 169.046875 145.355469 169.558594 145.40625 C 169.878906 145.433594 170.183594 145.457031 170.492188 145.476562 C 170.808594 145.496094 171.125 145.515625 171.433594 145.535156 C 172.214844 145.574219 172.96875 145.59375 173.695312 145.605469 C 174.695312 145.613281 175.289062 144.820312 175.050781 143.769531 C 174.882812 142.996094 174.65625 142.152344 174.378906 141.257812 Z M 174.378906 141.257812 " fill-opacity="1" fill-rule="nonzero"/><path fill="#004aad" d="M 194.738281 172.511719 L 195.253906 174.097656 L 240.558594 174.097656 L 241.074219 172.511719 C 241.125 172.371094 241.152344 172.242188 241.175781 172.113281 L 194.636719 172.113281 C 194.65625 172.234375 194.695312 172.371094 194.738281 172.511719 Z M 194.738281 172.511719 " fill-opacity="1" fill-rule="nonzero"/><path fill="#004aad" d="M 196.589844 178.167969 L 239.230469 178.167969 L 239.875 176.183594 L 195.9375 176.183594 Z M 196.589844 178.167969 " fill-opacity="1" fill-rule="nonzero"/><path fill="#004aad" d="M 197.917969 182.234375 L 237.902344 182.234375 L 238.546875 180.25 L 197.265625 180.25 Z M 197.917969 182.234375 " fill-opacity="1" fill-rule="nonzero"/><g fill="#000000" fill-opacity="1"><g transform="translate(94.021616, 270.342844)"><g><path d="M 22.316406 0 L 22.316406 -4.25 L 5.3125 -4.25 L 5.3125 -17 L 22.316406 -17 L 22.316406 -21.253906 L 5.3125 -21.253906 C 2.976562 -21.253906 1.0625 -19.339844 1.0625 -17 L 1.0625 -4.25 C 1.0625 -1.914062 2.976562 0 5.3125 0 Z M 22.316406 0 "/></g></g></g><g fill="#000000" fill-opacity="1"><g transform="translate(117.38981, 270.342844)"><g><path d="M 18.0625 0 C 20.429688 0 22.316406 -1.9375 22.316406 -4.25 L 22.316406 -17 C 22.316406 -19.339844 20.402344 -21.253906 18.0625 -21.253906 L 5.3125 -21.253906 C 2.976562 -21.253906 1.0625 -19.339844 1.0625 -17 L 1.0625 -4.25 C 1.0625 -1.914062 2.976562 0 5.3125 0 Z M 5.3125 -17 L 18.0625 -17 L 18.0625 -4.25 L 5.3125 -4.25 Z M 5.3125 -17 "/></g></g></g><g fill="#000000" fill-opacity="1"><g transform="translate(140.758003, 270.342844)"><g><path d="M 18.0625 0 C 20.429688 0 22.316406 -1.9375 22.316406 -4.25 L 22.316406 -17 C 22.316406 -19.339844 20.402344 -21.253906 18.0625 -21.253906 L 5.3125 -21.253906 C 2.976562 -21.253906 1.0625 -19.339844 1.0625 -17 L 1.0625 -4.25 C 1.0625 -1.914062 2.976562 0 5.3125 0 Z M 5.3125 -17 L 18.0625 -17 L 18.0625 -4.25 L 5.3125 -4.25 Z M 5.3125 -17 "/></g></g></g><g fill="#000000" fill-opacity="1"><g transform="translate(164.126196, 270.342844)"><g><path d="M 22.316406 0 L 22.316406 -4.25 L 5.3125 -4.25 L 5.3125 -21.253906 L 1.0625 -21.253906 L 1.0625 -4.25 C 1.0625 -1.914062 2.976562 0 5.3125 0 Z M 22.316406 0 "/></g></g></g><g fill="#000000" fill-opacity="1"><g transform="translate(187.494389, 270.342844)"><g><path d="M 22.316406 0 L 22.316406 -4.25 L 5.3125 -4.25 L 5.3125 -17 L 22.316406 -17 L 22.316406 -21.253906 L 5.3125 -21.253906 C 2.976562 -21.253906 1.0625 -19.339844 1.0625 -17 L 1.0625 -4.25 C 1.0625 -1.914062 2.976562 0 5.3125 0 Z M 22.316406 0 "/></g></g></g><g fill="#000000" fill-opacity="1"><g transform="translate(210.862582, 270.342844)"><g><path d="M 5.3125 -21.253906 C 2.976562 -21.253906 1.0625 -19.339844 1.0625 -17 L 1.0625 0 L 5.3125 0 L 5.3125 -8.5 L 18.0625 -8.5 L 18.0625 0 L 22.316406 0 L 22.316406 -17 C 22.316406 -19.339844 20.402344 -21.253906 18.0625 -21.253906 Z M 5.3125 -17 L 18.0625 -17 L 18.0625 -12.75 L 5.3125 -12.75 Z M 5.3125 -17 "/></g></g></g><g fill="#000000" fill-opacity="1"><g transform="translate(234.230776, 270.342844)"><g><path d="M 22.316406 -17 C 22.316406 -19.339844 20.402344 -21.253906 18.0625 -21.253906 L 1.0625 -21.253906 L 1.0625 0 L 5.3125 0 L 5.3125 -8.5 L 7.808594 -8.5 L 15.671875 -0.636719 C 16.097656 -0.210938 16.628906 0 17.214844 0 L 22.316406 0 L 22.316406 -4.25 L 18.0625 -4.25 L 13.8125 -8.5 L 18.0625 -8.5 C 20.402344 -8.5 22.316406 -10.414062 22.316406 -12.75 Z M 18.0625 -17 L 18.0625 -12.75 L 5.3125 -12.75 L 5.3125 -17 Z M 18.0625 -17 "/></g></g></g><g fill="#000000" fill-opacity="1"><g transform="translate(257.598969, 270.342844)"><g><path d="M 22.316406 -21.253906 L 5.3125 -21.253906 C 2.976562 -21.253906 1.0625 -19.339844 1.0625 -17 L 1.0625 -12.75 C 1.0625 -10.414062 2.976562 -8.5 5.3125 -8.5 L 18.0625 -8.5 L 18.0625 -4.25 L 1.0625 -4.25 L 1.0625 0 L 18.0625 0 C 20.402344 0 22.316406 -1.914062 22.316406 -4.25 L 22.316406 -8.5 C 22.316406 -10.839844 20.402344 -12.75 18.0625 -12.75 L 5.3125 -12.75 L 5.3125 -17 L 22.316406 -17 Z M 22.316406 -21.253906 "/></g></g></g><g fill="#000000" fill-opacity="1"><g transform="translate(95.883057, 287.452392)"><g><path d="M 4.9375 -8.625 C 5.539062 -8.625 6.128906 -8.503906 6.703125 -8.265625 C 7.273438 -8.035156 7.769531 -7.710938 8.1875 -7.296875 L 7.34375 -6.25 C 7.03125 -6.582031 6.660156 -6.84375 6.234375 -7.03125 C 5.816406 -7.226562 5.390625 -7.328125 4.953125 -7.328125 C 4.097656 -7.328125 3.375 -7.035156 2.78125 -6.453125 C 2.1875 -5.867188 1.890625 -5.15625 1.890625 -4.3125 C 1.890625 -3.46875 2.1875 -2.75 2.78125 -2.15625 C 3.375 -1.570312 4.097656 -1.28125 4.953125 -1.28125 C 5.847656 -1.28125 6.644531 -1.625 7.34375 -2.3125 L 8.203125 -1.34375 C 7.765625 -0.914062 7.25 -0.570312 6.65625 -0.3125 C 6.070312 -0.0625 5.476562 0.0625 4.875 0.0625 C 3.625 0.0625 2.566406 -0.351562 1.703125 -1.1875 C 0.847656 -2.03125 0.421875 -3.070312 0.421875 -4.3125 C 0.421875 -5.53125 0.851562 -6.550781 1.71875 -7.375 C 2.59375 -8.207031 3.664062 -8.625 4.9375 -8.625 Z M 4.9375 -8.625 "/></g></g></g><g fill="#000000" fill-opacity="1"><g transform="translate(109.297654, 287.452392)"><g><path d="M 6.671875 -1.9375 L 2.34375 -1.9375 L 1.515625 0 L 0.015625 0 L 3.796875 -8.59375 L 5.28125 -8.59375 L 9.046875 0 L 7.5 0 Z M 6.125 -3.21875 L 4.5 -7.046875 L 2.875 -3.21875 Z M 6.125 -3.21875 "/></g></g></g><g fill="#000000" fill-opacity="1"><g transform="translate(123.21483, 287.452392)"><g><path d="M 6.578125 0 L 5 -2.59375 C 4.914062 -2.59375 4.785156 -2.59375 4.609375 -2.59375 L 2.578125 -2.59375 L 2.578125 0 L 1.125 0 L 1.125 -8.59375 L 4.609375 -8.59375 C 5.703125 -8.59375 6.550781 -8.332031 7.15625 -7.8125 C 7.769531 -7.300781 8.078125 -6.582031 8.078125 -5.65625 C 8.078125 -4.96875 7.921875 -4.382812 7.609375 -3.90625 C 7.304688 -3.4375 6.867188 -3.09375 6.296875 -2.875 L 8.21875 0 Z M 2.578125 -3.890625 L 4.609375 -3.890625 C 6.003906 -3.890625 6.703125 -4.46875 6.703125 -5.625 C 6.703125 -6.726562 6.003906 -7.28125 4.609375 -7.28125 L 2.578125 -7.28125 Z M 2.578125 -3.890625 "/></g></g></g><g fill="#000000" fill-opacity="1"><g transform="translate(136.948134, 287.452392)"><g/></g></g><g fill="#000000" fill-opacity="1"><g transform="translate(144.981526, 287.452392)"><g><path d="M 6.578125 0 L 5 -2.59375 C 4.914062 -2.59375 4.785156 -2.59375 4.609375 -2.59375 L 2.578125 -2.59375 L 2.578125 0 L 1.125 0 L 1.125 -8.59375 L 4.609375 -8.59375 C 5.703125 -8.59375 6.550781 -8.332031 7.15625 -7.8125 C 7.769531 -7.300781 8.078125 -6.582031 8.078125 -5.65625 C 8.078125 -4.96875 7.921875 -4.382812 7.609375 -3.90625 C 7.304688 -3.4375 6.867188 -3.09375 6.296875 -2.875 L 8.21875 0 Z M 2.578125 -3.890625 L 4.609375 -3.890625 C 6.003906 -3.890625 6.703125 -4.46875 6.703125 -5.625 C 6.703125 -6.726562 6.003906 -7.28125 4.609375 -7.28125 L 2.578125 -7.28125 Z M 2.578125 -3.890625 "/></g></g></g><g fill="#000000" fill-opacity="1"><g transform="translate(158.714829, 287.452392)"><g><path d="M 7.265625 -7.28125 L 2.578125 -7.28125 L 2.578125 -4.96875 L 6.765625 -4.96875 L 6.765625 -3.671875 L 2.578125 -3.671875 L 2.578125 -1.296875 L 7.40625 -1.296875 L 7.40625 0 L 1.125 0 L 1.125 -8.59375 L 7.265625 -8.59375 Z M 7.265625 -7.28125 "/></g></g></g><g fill="#000000" fill-opacity="1"><g transform="translate(171.62686, 287.452392)"><g><path d="M 1.125 -8.59375 L 4.546875 -8.59375 C 5.628906 -8.59375 6.46875 -8.332031 7.0625 -7.8125 C 7.65625 -7.300781 7.953125 -6.582031 7.953125 -5.65625 C 7.953125 -4.675781 7.65625 -3.921875 7.0625 -3.390625 C 6.46875 -2.859375 5.628906 -2.59375 4.546875 -2.59375 L 2.578125 -2.59375 L 2.578125 0 L 1.125 0 Z M 2.578125 -7.28125 L 2.578125 -3.890625 L 4.484375 -3.890625 C 5.867188 -3.890625 6.5625 -4.46875 6.5625 -5.625 C 6.5625 -6.726562 5.867188 -7.28125 4.484375 -7.28125 Z M 2.578125 -7.28125 "/></g></g></g><g fill="#000000" fill-opacity="1"><g transform="translate(184.747276, 287.452392)"><g><path d="M 6.671875 -1.9375 L 2.34375 -1.9375 L 1.515625 0 L 0.015625 0 L 3.796875 -8.59375 L 5.28125 -8.59375 L 9.046875 0 L 7.5 0 Z M 6.125 -3.21875 L 4.5 -7.046875 L 2.875 -3.21875 Z M 6.125 -3.21875 "/></g></g></g><g fill="#000000" fill-opacity="1"><g transform="translate(198.664452, 287.452392)"><g><path d="M 2.578125 0 L 1.125 0 L 1.125 -8.59375 L 2.578125 -8.59375 Z M 2.578125 0 "/></g></g></g><g fill="#000000" fill-opacity="1"><g transform="translate(207.237198, 287.452392)"><g><path d="M 6.578125 0 L 5 -2.59375 C 4.914062 -2.59375 4.785156 -2.59375 4.609375 -2.59375 L 2.578125 -2.59375 L 2.578125 0 L 1.125 0 L 1.125 -8.59375 L 4.609375 -8.59375 C 5.703125 -8.59375 6.550781 -8.332031 7.15625 -7.8125 C 7.769531 -7.300781 8.078125 -6.582031 8.078125 -5.65625 C 8.078125 -4.96875 7.921875 -4.382812 7.609375 -3.90625 C 7.304688 -3.4375 6.867188 -3.09375 6.296875 -2.875 L 8.21875 0 Z M 2.578125 -3.890625 L 4.609375 -3.890625 C 6.003906 -3.890625 6.703125 -4.46875 6.703125 -5.625 C 6.703125 -6.726562 6.003906 -7.28125 4.609375 -7.28125 L 2.578125 -7.28125 Z M 2.578125 -3.890625 "/></g></g></g><g fill="#000000" fill-opacity="1"><g transform="translate(220.970496, 287.452392)"><g/></g></g><g fill="#000000" fill-opacity="1"><g transform="translate(229.003882, 287.452392)"><g><path d="M 3.953125 -8.640625 C 5.066406 -8.640625 6.066406 -8.347656 6.953125 -7.765625 L 6.359375 -6.484375 C 5.484375 -7.015625 4.644531 -7.28125 3.84375 -7.28125 C 3.40625 -7.28125 3.0625 -7.203125 2.8125 -7.046875 C 2.5625 -6.890625 2.4375 -6.671875 2.4375 -6.390625 C 2.4375 -6.109375 2.550781 -5.863281 2.78125 -5.65625 C 3.007812 -5.457031 3.296875 -5.3125 3.640625 -5.21875 C 3.984375 -5.125 4.351562 -5.003906 4.75 -4.859375 C 5.15625 -4.722656 5.53125 -4.570312 5.875 -4.40625 C 6.21875 -4.25 6.5 -4 6.71875 -3.65625 C 6.945312 -3.320312 7.0625 -2.910156 7.0625 -2.421875 C 7.0625 -1.671875 6.757812 -1.070312 6.15625 -0.625 C 5.5625 -0.175781 4.785156 0.046875 3.828125 0.046875 C 3.171875 0.046875 2.535156 -0.0703125 1.921875 -0.3125 C 1.304688 -0.5625 0.769531 -0.894531 0.3125 -1.3125 L 0.9375 -2.5625 C 1.375 -2.164062 1.851562 -1.859375 2.375 -1.640625 C 2.894531 -1.421875 3.382812 -1.3125 3.84375 -1.3125 C 4.351562 -1.3125 4.75 -1.398438 5.03125 -1.578125 C 5.3125 -1.765625 5.453125 -2.023438 5.453125 -2.359375 C 5.453125 -2.648438 5.335938 -2.894531 5.109375 -3.09375 C 4.878906 -3.289062 4.59375 -3.4375 4.25 -3.53125 C 3.90625 -3.632812 3.53125 -3.75 3.125 -3.875 C 2.726562 -4.007812 2.359375 -4.148438 2.015625 -4.296875 C 1.679688 -4.453125 1.398438 -4.695312 1.171875 -5.03125 C 0.941406 -5.375 0.828125 -5.78125 0.828125 -6.25 C 0.828125 -6.976562 1.109375 -7.554688 1.671875 -7.984375 C 2.242188 -8.421875 3.003906 -8.640625 3.953125 -8.640625 Z M 3.953125 -8.640625 "/></g></g></g><g fill="#000000" fill-opacity="1"><g transform="translate(241.499136, 287.452392)"><g><path d="M 8.578125 0 L 7.125 0 L 7.125 -3.5625 L 2.578125 -3.5625 L 2.578125 0 L 1.125 0 L 1.125 -8.59375 L 2.578125 -8.59375 L 2.578125 -4.859375 L 7.125 -4.859375 L 7.125 -8.59375 L 8.578125 -8.59375 Z M 8.578125 0 "/></g></g></g><g fill="#000000" fill-opacity="1"><g transform="translate(256.065976, 287.452392)"><g><path d="M 1.734375 -7.375 C 2.609375 -8.207031 3.6875 -8.625 4.96875 -8.625 C 6.25 -8.625 7.328125 -8.207031 8.203125 -7.375 C 9.078125 -6.550781 9.515625 -5.523438 9.515625 -4.296875 C 9.515625 -3.066406 9.078125 -2.03125 8.203125 -1.1875 C 7.328125 -0.351562 6.25 0.0625 4.96875 0.0625 C 3.6875 0.0625 2.609375 -0.351562 1.734375 -1.1875 C 0.859375 -2.03125 0.421875 -3.066406 0.421875 -4.296875 C 0.421875 -5.523438 0.859375 -6.550781 1.734375 -7.375 Z M 4.984375 -7.328125 C 4.128906 -7.328125 3.398438 -7.03125 2.796875 -6.4375 C 2.191406 -5.851562 1.890625 -5.132812 1.890625 -4.28125 C 1.890625 -3.4375 2.191406 -2.71875 2.796875 -2.125 C 3.410156 -1.53125 4.140625 -1.234375 4.984375 -1.234375 C 5.828125 -1.234375 6.546875 -1.53125 7.140625 -2.125 C 7.734375 -2.71875 8.03125 -3.4375 8.03125 -4.28125 C 8.03125 -5.132812 7.734375 -5.851562 7.140625 -6.4375 C 6.546875 -7.03125 5.828125 -7.328125 4.984375 -7.328125 Z M 4.984375 -7.328125 "/></g></g></g><g fill="#000000" fill-opacity="1"><g transform="translate(270.865727, 287.452392)"><g><path d="M 1.125 -8.59375 L 4.546875 -8.59375 C 5.628906 -8.59375 6.46875 -8.332031 7.0625 -7.8125 C 7.65625 -7.300781 7.953125 -6.582031 7.953125 -5.65625 C 7.953125 -4.675781 7.65625 -3.921875 7.0625 -3.390625 C 6.46875 -2.859375 5.628906 -2.59375 4.546875 -2.59375 L 2.578125 -2.59375 L 2.578125 0 L 1.125 0 Z M 2.578125 -7.28125 L 2.578125 -3.890625 L 4.484375 -3.890625 C 5.867188 -3.890625 6.5625 -4.46875 6.5625 -5.625 C 6.5625 -6.726562 5.867188 -7.28125 4.484375 -7.28125 Z M 2.578125 -7.28125 "/></g></g></g></svg>